<?xml version="1.0" encoding="UTF-8" standalone="no"?>
<svg
   xmlns:dc="http://purl.org/dc/elements/1.1/"
   xmlns:cc="http://creativecommons.org/ns#"
   xmlns:rdf="http://www.w3.org/1999/02/22-rdf-syntax-ns#"
   xmlns:svg="http://www.w3.org/2000/svg"
   xmlns="http://www.w3.org/2000/svg"
   xmlns:sodipodi="http://sodipodi.sourceforge.net/DTD/sodipodi-0.dtd"
   xmlns:inkscape="http://www.inkscape.org/namespaces/inkscape"
   viewBox="0 0 47.222659 47.393335"
   height="47.393333"
   width="47.22266"
   xml:space="preserve"
   id="svg2"
   version="1.1"
   sodipodi:docname="glyph_black_whitespace.svg"
   inkscape:version="0.92.5 (2060ec1f9f, 2020-04-08)"><sodipodi:namedview
     pagecolor="#ffffff"
     bordercolor="#666666"
     borderopacity="1"
     objecttolerance="10"
     gridtolerance="10"
     guidetolerance="10"
     inkscape:pageopacity="0"
     inkscape:pageshadow="2"
     inkscape:window-width="1920"
     inkscape:window-height="1147"
     id="namedview38"
     showgrid="false"
     inkscape:zoom="0.95919554"
     inkscape:cx="171.49784"
     inkscape:cy="23.696669"
     inkscape:window-x="1920"
     inkscape:window-y="0"
     inkscape:window-maximized="1"
     inkscape:current-layer="svg2"
     fit-margin-top="0"
     fit-margin-left="0"
     fit-margin-right="0"
     fit-margin-bottom="0" /><metadata
     id="metadata8"><rdf:RDF><cc:Work
         rdf:about=""><dc:format>image/svg+xml</dc:format><dc:type
           rdf:resource="http://purl.org/dc/dcmitype/StillImage" /><dc:title></dc:title></cc:Work></rdf:RDF></metadata><defs
     id="defs6">

</defs><g
     id="g900"><path
       d="M 47.222665,33.811999 V 0 H 41.975999 V 31.058666 L 23.610666,41.594665 5.2466666,31.058666 V 0 H 0 V 33.811999 L 23.610666,47.393332 47.222665,33.811999"
       style="fill:#2c2d2e;fill-opacity:1;fill-rule:nonzero;stroke:none;stroke-width:0.13333333"
       id="path40"
       inkscape:connector-curvature="0" /><path
       d="M 31.482666,4.7679999 V 31.029332 l 5.245333,-3.009333 V 4.7679999 h -5.245333"
       style="fill:#2c2d2e;fill-opacity:1;fill-rule:nonzero;stroke:none;stroke-width:0.13333333"
       id="path42"
       inkscape:connector-curvature="0" /><path
       d="m 20.989333,11.018666 v 23.021333 l 2.621333,1.505333 2.625333,-1.505333 V 11.018666 h -5.246666"
       style="fill:#2c2d2e;fill-opacity:1;fill-rule:nonzero;stroke:none;stroke-width:0.13333333"
       id="path44"
       inkscape:connector-curvature="0" /><path
       d="m 10.493333,17.767999 v 10.252 l 5.248,3.009333 V 17.767999 h -5.248"
       style="fill:#2c2d2e;fill-opacity:1;fill-rule:nonzero;stroke:none;stroke-width:0.13333333"
       id="path46"
       inkscape:connector-curvature="0" /></g><path
     inkscape:connector-curvature="0"
     id="path60"
     style="fill:#ffffff;fill-opacity:1;fill-rule:nonzero;stroke:none;stroke-width:0.13333333"
     d="m -663.06265,547.78932 v -27.04933 h -4.196 v 24.84533 l -14.692,8.4296 -14.692,-8.4296 v -24.84533 h -4.19733 v 27.04933 l 18.88933,10.86414 18.888,-10.86414" /><path
     inkscape:connector-curvature="0"
     id="path62"
     style="fill:#ffffff;fill-opacity:1;fill-rule:nonzero;stroke:none;stroke-width:0.13333333"
     d="m -675.65465,528.55332 v 17.00934 l 4.19733,-2.40667 v -14.60267 h -4.19733" /><path
     inkscape:connector-curvature="0"
     id="path64"
     style="fill:#ffffff;fill-opacity:1;fill-rule:nonzero;stroke:none;stroke-width:0.13333333"
     d="m -684.04932,520.73999 v 27.23067 l 2.09867,1.20533 2.09866,-1.20533 v -27.23067 h -4.19733" /><path
     inkscape:connector-curvature="0"
     id="path66"
     style="fill:#ffffff;fill-opacity:1;fill-rule:nonzero;stroke:none;stroke-width:0.13333333"
     d="m -692.44532,524.28666 v 18.86933 l 4.19867,2.40667 v -21.276 h -4.19867" /><path
     inkscape:connector-curvature="0"
     id="path68"
     style="fill:#ffffff;fill-opacity:1;fill-rule:nonzero;stroke:none;stroke-width:0.13333333"
     d="m -626.53332,524.07066 h 4.03333 v 22.028 c 0,2.68933 -2.16666,4.8548 -4.85466,4.8548 h -17.17467 c -2.688,0 -4.85333,-2.16547 -4.85333,-4.8548 v -22.028 h 4.032 v 22.028 c 0,0.448 0.37333,0.82266 0.82133,0.82266 h 17.17467 c 0.44933,0 0.82133,-0.37466 0.82133,-0.82266 v -22.028" /><path
     inkscape:connector-curvature="0"
     id="path70"
     style="fill:#ffffff;fill-opacity:1;fill-rule:nonzero;stroke:none;stroke-width:0.13333333"
     d="m -592.93199,524.07066 h 4.032 v 26.8828 h -4.77866 l -18.07334,-21.50547 v 21.50547 h -4.032 v -26.8828 h 4.77867 l 18.07333,21.50533 v -21.50533" /><path
     inkscape:connector-curvature="0"
     id="path72"
     style="fill:#ffffff;fill-opacity:1;fill-rule:nonzero;stroke:none;stroke-width:0.13333333"
     d="m -559.25865,528.96266 c 0,-0.448 -0.37334,-0.82267 -0.82134,-0.82267 h -17.176 c -0.44666,0 -0.82133,0.37467 -0.82133,0.82267 v 7.54133 c 0,0.448 0.37467,0.82133 0.82133,0.82133 h 17.176 c 0.448,0 0.82134,-0.37333 0.82134,-0.82133 z m -0.82134,-4.85467 c 2.688,0 4.85334,2.20267 4.85334,4.85467 v 7.54133 c 0,2.652 -2.16534,4.85333 -4.85334,4.85333 h -17.176 c -0.29866,0 -0.56,-0.0373 -0.82133,-0.0747 v 9.6708 h -4.032 v -26.84547 h 22.02933" /><path
     inkscape:connector-curvature="0"
     id="path74"
     style="fill:#ffffff;fill-opacity:1;fill-rule:nonzero;stroke:none;stroke-width:0.13333333"
     d="m -528.01199,546.92132 c 0.448,0 0.82267,-0.37466 0.82267,-0.82266 v -17.17467 c 0,-0.448 -0.37467,-0.82 -0.82267,-0.82 h -17.17467 c -0.448,0 -0.82,0.372 -0.82,0.82 v 17.17467 c 0,0.448 0.372,0.82266 0.82,0.82266 z m 0,-22.85066 c 2.68933,0 4.85467,2.16666 4.85467,4.85333 v 17.17467 c 0,2.68933 -2.16534,4.8548 -4.85467,4.8548 h -17.17467 c -2.688,0 -4.85333,-2.16547 -4.85333,-4.8548 v -17.17467 c 0,-2.68667 2.16533,-4.85333 4.85333,-4.85333 h 17.17467" /><path
     inkscape:connector-curvature="0"
     id="path76"
     style="fill:#ffffff;fill-opacity:1;fill-rule:nonzero;stroke:none;stroke-width:0.13333333"
     d="m -516.40266,524.03199 h 4.032 v 22.88933 h 22.85067 v 4.03214 h -26.88267 v -26.92147" /><path
     inkscape:connector-curvature="0"
     id="path78"
     style="fill:#ffffff;fill-opacity:1;fill-rule:nonzero;stroke:none;stroke-width:0.13333333"
     d="m -462.22932,524.07066 -12.396,16.80133 v 10.08147 h -4.03334 v -10.08147 l -12.396,-16.80133 h 4.74267 l 9.66933,12.24666 9.63467,-12.24666 h 4.77867" /><path
     inkscape:connector-curvature="0"
     id="path80"
     style="fill:#ffffff;fill-opacity:1;fill-rule:nonzero;stroke:none;stroke-width:0.13333333"
     d="m 67.605332,547.78932 v -27.04933 h -4.197334 v 24.84533 l -14.691999,8.4296 -14.692,-8.4296 v -24.84533 h -4.197333 v 27.04933 l 18.889333,10.86414 18.889333,-10.86414" /><path
     inkscape:connector-curvature="0"
     id="path82"
     style="fill:#ffffff;fill-opacity:1;fill-rule:nonzero;stroke:none;stroke-width:0.13333333"
     d="m 55.011999,524.55332 v 21.00934 l 4.198666,-2.40667 v -18.60267 h -4.198666" /><path
     inkscape:connector-curvature="0"
     id="path84"
     style="fill:#ffffff;fill-opacity:1;fill-rule:nonzero;stroke:none;stroke-width:0.13333333"
     d="m 46.617332,529.55332 v 18.41734 l 2.098667,1.20533 2.1,-1.20533 v -18.41734 h -4.198667" /><path
     inkscape:connector-curvature="0"
     id="path86"
     style="fill:#ffffff;fill-opacity:1;fill-rule:nonzero;stroke:none;stroke-width:0.13333333"
     d="m 38.221332,534.95332 v 8.20267 l 4.198667,2.40667 v -10.60934 h -4.198667" /><path
     inkscape:connector-curvature="0"
     id="path88"
     style="fill:#ffffff;fill-opacity:1;fill-rule:nonzero;stroke:none;stroke-width:0.13333333"
     d="m 104.13466,524.07066 h 4.03067 v 22.028 c 0,2.68933 -2.164,4.8548 -4.85333,4.8548 H 86.137331 c -2.688,0 -4.853333,-2.16547 -4.853333,-4.8548 v -22.028 h 4.032 v 22.028 c 0,0.448 0.373333,0.82266 0.821333,0.82266 H 103.312 c 0.45066,0 0.82266,-0.37466 0.82266,-0.82266 v -22.028" /><path
     inkscape:connector-curvature="0"
     id="path90"
     style="fill:#ffffff;fill-opacity:1;fill-rule:nonzero;stroke:none;stroke-width:0.13333333"
     d="m 137.73333,524.07066 h 4.03466 v 26.8828 h -4.78 l -18.072,-21.50547 v 21.50547 h -4.03333 v -26.8828 h 4.78 l 18.07067,21.50533 v -21.50533" /><path
     inkscape:connector-curvature="0"
     id="path92"
     style="fill:#ffffff;fill-opacity:1;fill-rule:nonzero;stroke:none;stroke-width:0.13333333"
     d="m 171.40799,528.96266 c 0,-0.448 -0.37333,-0.82267 -0.82133,-0.82267 h -17.176 c -0.448,0 -0.82,0.37467 -0.82,0.82267 v 7.54133 c 0,0.448 0.372,0.82133 0.82,0.82133 h 17.176 c 0.448,0 0.82133,-0.37333 0.82133,-0.82133 z m -0.82133,-4.85467 c 2.688,0 4.85333,2.20267 4.85333,4.85467 v 7.54133 c 0,2.652 -2.16533,4.85333 -4.85333,4.85333 h -17.176 c -0.29867,0 -0.56,-0.0373 -0.82,-0.0747 v 9.6708 h -4.03467 v -26.84547 h 22.03067" /><path
     inkscape:connector-curvature="0"
     id="path94"
     style="fill:#ffffff;fill-opacity:1;fill-rule:nonzero;stroke:none;stroke-width:0.13333333"
     d="m 202.65199,546.92132 c 0.45334,0 0.82667,-0.37466 0.82667,-0.82266 v -17.17467 c 0,-0.448 -0.37333,-0.82 -0.82667,-0.82 h -17.17333 c -0.44,0 -0.81333,0.372 -0.81333,0.82 v 17.17467 c 0,0.448 0.37333,0.82266 0.81333,0.82266 z m 0,-22.85066 c 2.69334,0 4.85334,2.16666 4.85334,4.85333 v 17.17467 c 0,2.68933 -2.16,4.8548 -4.85334,4.8548 h -17.17333 c -2.68533,0 -4.852,-2.16547 -4.852,-4.8548 v -17.17467 c 0,-2.68667 2.16667,-4.85333 4.852,-4.85333 h 17.17333" /><path
     inkscape:connector-curvature="0"
     id="path96"
     style="fill:#ffffff;fill-opacity:1;fill-rule:nonzero;stroke:none;stroke-width:0.13333333"
     d="m 214.26533,524.03199 h 4.02666 v 22.88933 h 22.85334 v 4.03214 h -26.88 v -26.92147" /><path
     inkscape:connector-curvature="0"
     id="path98"
     style="fill:#ffffff;fill-opacity:1;fill-rule:nonzero;stroke:none;stroke-width:0.13333333"
     d="m 268.43866,524.07066 -12.4,16.80133 v 10.08147 h -4.02667 v -10.08147 l -12.4,-16.80133 h 4.74667 l 9.66666,12.24666 9.62667,-12.24666 h 4.78667" /></svg>