<?xml version="1.0" encoding="UTF-8" standalone="no"?>
<svg
   xmlns:dc="http://purl.org/dc/elements/1.1/"
   xmlns:cc="http://creativecommons.org/ns#"
   xmlns:rdf="http://www.w3.org/1999/02/22-rdf-syntax-ns#"
   xmlns:svg="http://www.w3.org/2000/svg"
   xmlns="http://www.w3.org/2000/svg"
   xmlns:sodipodi="http://sodipodi.sourceforge.net/DTD/sodipodi-0.dtd"
   xmlns:inkscape="http://www.inkscape.org/namespaces/inkscape"
   viewBox="0 0 88.495457 47.393335"
   height="47.393333"
   width="88.495461"
   xml:space="preserve"
   id="svg2"
   version="1.1"
   sodipodi:docname="glyph.with-digit.white.svg"
   inkscape:version="0.92.5 (2060ec1f9f, 2020-04-08)"><sodipodi:namedview
     pagecolor="#ffffff"
     bordercolor="#666666"
     borderopacity="1"
     objecttolerance="10"
     gridtolerance="10"
     guidetolerance="10"
     inkscape:pageopacity="0"
     inkscape:pageshadow="2"
     inkscape:window-width="2560"
     inkscape:window-height="1391"
     id="namedview37"
     showgrid="false"
     inkscape:zoom="7.8217996"
     inkscape:cx="29.369387"
     inkscape:cy="5.8383835"
     inkscape:window-x="1920"
     inkscape:window-y="0"
     inkscape:window-maximized="1"
     inkscape:current-layer="svg2"
     fit-margin-top="0"
     fit-margin-left="0"
     fit-margin-right="0"
     fit-margin-bottom="0" /><metadata
     id="metadata8"><rdf:RDF><cc:Work
         rdf:about=""><dc:format>image/svg+xml</dc:format><dc:type
           rdf:resource="http://purl.org/dc/dcmitype/StillImage" /><dc:title /></cc:Work></rdf:RDF></metadata><defs
     id="defs6">


</defs><path
     inkscape:connector-curvature="0"
     id="path40"
     style="fill:#ffffff;fill-opacity:1;fill-rule:nonzero;stroke:none;stroke-width:0.13333333"
     d="M 47.222665,33.811999 V 0 H 41.975999 V 31.058666 L 23.610666,41.594665 5.2466666,31.058666 V 0 H 0 V 33.811999 L 23.610666,47.393332 47.222665,33.811999" /><path
     inkscape:connector-curvature="0"
     id="path42"
     style="fill:#ffffff;fill-opacity:1;fill-rule:nonzero;stroke:none;stroke-width:0.13333333"
     d="M 31.482666,4.7679999 V 31.029332 l 5.245333,-3.009333 V 4.7679999 h -5.245333" /><path
     inkscape:connector-curvature="0"
     id="path44"
     style="fill:#ffffff;fill-opacity:1;fill-rule:nonzero;stroke:none;stroke-width:0.13333333"
     d="m 20.989333,11.018666 v 23.021333 l 2.621333,1.505333 2.625333,-1.505333 V 11.018666 h -5.246666" /><path
     inkscape:connector-curvature="0"
     id="path46"
     style="fill:#ffffff;fill-opacity:1;fill-rule:nonzero;stroke:none;stroke-width:0.13333333"
     d="m 10.493333,17.767999 v 10.252 l 5.248,3.009333 V 17.767999 h -5.248" /><path
     inkscape:connector-curvature="0"
     id="path60"
     style="fill:#ffffff;fill-opacity:1;fill-rule:nonzero;stroke:none;stroke-width:0.13333333"
     d="m -663.06265,547.78932 v -27.04933 h -4.196 v 24.84533 l -14.692,8.4296 -14.692,-8.4296 v -24.84533 h -4.19733 v 27.04933 l 18.88933,10.86414 18.888,-10.86414" /><path
     inkscape:connector-curvature="0"
     id="path62"
     style="fill:#ffffff;fill-opacity:1;fill-rule:nonzero;stroke:none;stroke-width:0.13333333"
     d="m -675.65465,528.55332 v 17.00934 l 4.19733,-2.40667 v -14.60267 h -4.19733" /><path
     inkscape:connector-curvature="0"
     id="path64"
     style="fill:#ffffff;fill-opacity:1;fill-rule:nonzero;stroke:none;stroke-width:0.13333333"
     d="m -684.04932,520.73999 v 27.23067 l 2.09867,1.20533 2.09866,-1.20533 v -27.23067 h -4.19733" /><path
     inkscape:connector-curvature="0"
     id="path66"
     style="fill:#ffffff;fill-opacity:1;fill-rule:nonzero;stroke:none;stroke-width:0.13333333"
     d="m -692.44532,524.28666 v 18.86933 l 4.19867,2.40667 v -21.276 h -4.19867" /><path
     inkscape:connector-curvature="0"
     id="path68"
     style="fill:#ffffff;fill-opacity:1;fill-rule:nonzero;stroke:none;stroke-width:0.13333333"
     d="m -626.53332,524.07066 h 4.03333 v 22.028 c 0,2.68933 -2.16666,4.8548 -4.85466,4.8548 h -17.17467 c -2.688,0 -4.85333,-2.16547 -4.85333,-4.8548 v -22.028 h 4.032 v 22.028 c 0,0.448 0.37333,0.82266 0.82133,0.82266 h 17.17467 c 0.44933,0 0.82133,-0.37466 0.82133,-0.82266 v -22.028" /><path
     inkscape:connector-curvature="0"
     id="path70"
     style="fill:#ffffff;fill-opacity:1;fill-rule:nonzero;stroke:none;stroke-width:0.13333333"
     d="m -592.93199,524.07066 h 4.032 v 26.8828 h -4.77866 l -18.07334,-21.50547 v 21.50547 h -4.032 v -26.8828 h 4.77867 l 18.07333,21.50533 v -21.50533" /><path
     inkscape:connector-curvature="0"
     id="path72"
     style="fill:#ffffff;fill-opacity:1;fill-rule:nonzero;stroke:none;stroke-width:0.13333333"
     d="m -559.25865,528.96266 c 0,-0.448 -0.37334,-0.82267 -0.82134,-0.82267 h -17.176 c -0.44666,0 -0.82133,0.37467 -0.82133,0.82267 v 7.54133 c 0,0.448 0.37467,0.82133 0.82133,0.82133 h 17.176 c 0.448,0 0.82134,-0.37333 0.82134,-0.82133 z m -0.82134,-4.85467 c 2.688,0 4.85334,2.20267 4.85334,4.85467 v 7.54133 c 0,2.652 -2.16534,4.85333 -4.85334,4.85333 h -17.176 c -0.29866,0 -0.56,-0.0373 -0.82133,-0.0747 v 9.6708 h -4.032 v -26.84547 h 22.02933" /><path
     inkscape:connector-curvature="0"
     id="path74"
     style="fill:#ffffff;fill-opacity:1;fill-rule:nonzero;stroke:none;stroke-width:0.13333333"
     d="m -528.01199,546.92132 c 0.448,0 0.82267,-0.37466 0.82267,-0.82266 v -17.17467 c 0,-0.448 -0.37467,-0.82 -0.82267,-0.82 h -17.17467 c -0.448,0 -0.82,0.372 -0.82,0.82 v 17.17467 c 0,0.448 0.372,0.82266 0.82,0.82266 z m 0,-22.85066 c 2.68933,0 4.85467,2.16666 4.85467,4.85333 v 17.17467 c 0,2.68933 -2.16534,4.8548 -4.85467,4.8548 h -17.17467 c -2.688,0 -4.85333,-2.16547 -4.85333,-4.8548 v -17.17467 c 0,-2.68667 2.16533,-4.85333 4.85333,-4.85333 h 17.17467" /><path
     inkscape:connector-curvature="0"
     id="path76"
     style="fill:#ffffff;fill-opacity:1;fill-rule:nonzero;stroke:none;stroke-width:0.13333333"
     d="m -516.40266,524.03199 h 4.032 v 22.88933 h 22.85067 v 4.03214 h -26.88267 v -26.92147" /><path
     inkscape:connector-curvature="0"
     id="path78"
     style="fill:#ffffff;fill-opacity:1;fill-rule:nonzero;stroke:none;stroke-width:0.13333333"
     d="m -462.22932,524.07066 -12.396,16.80133 v 10.08147 h -4.03334 v -10.08147 l -12.396,-16.80133 h 4.74267 l 9.66933,12.24666 9.63467,-12.24666 h 4.77867" /><path
     inkscape:connector-curvature="0"
     id="path80"
     style="fill:#ffffff;fill-opacity:1;fill-rule:nonzero;stroke:none;stroke-width:0.13333333"
     d="m 67.605332,547.78932 v -27.04933 h -4.197334 v 24.84533 l -14.691999,8.4296 -14.692,-8.4296 v -24.84533 h -4.197333 v 27.04933 l 18.889333,10.86414 18.889333,-10.86414" /><path
     inkscape:connector-curvature="0"
     id="path82"
     style="fill:#ffffff;fill-opacity:1;fill-rule:nonzero;stroke:none;stroke-width:0.13333333"
     d="m 55.011999,524.55332 v 21.00934 l 4.198666,-2.40667 v -18.60267 h -4.198666" /><path
     inkscape:connector-curvature="0"
     id="path84"
     style="fill:#ffffff;fill-opacity:1;fill-rule:nonzero;stroke:none;stroke-width:0.13333333"
     d="m 46.617332,529.55332 v 18.41734 l 2.098667,1.20533 2.1,-1.20533 v -18.41734 h -4.198667" /><path
     inkscape:connector-curvature="0"
     id="path86"
     style="fill:#ffffff;fill-opacity:1;fill-rule:nonzero;stroke:none;stroke-width:0.13333333"
     d="m 38.221332,534.95332 v 8.20267 l 4.198667,2.40667 v -10.60934 h -4.198667" /><path
     inkscape:connector-curvature="0"
     id="path88"
     style="fill:#ffffff;fill-opacity:1;fill-rule:nonzero;stroke:none;stroke-width:0.13333333"
     d="m 104.13466,524.07066 h 4.03067 v 22.028 c 0,2.68933 -2.164,4.8548 -4.85333,4.8548 H 86.137331 c -2.688,0 -4.853333,-2.16547 -4.853333,-4.8548 v -22.028 h 4.032 v 22.028 c 0,0.448 0.373333,0.82266 0.821333,0.82266 H 103.312 c 0.45066,0 0.82266,-0.37466 0.82266,-0.82266 v -22.028" /><path
     inkscape:connector-curvature="0"
     id="path90"
     style="fill:#ffffff;fill-opacity:1;fill-rule:nonzero;stroke:none;stroke-width:0.13333333"
     d="m 137.73333,524.07066 h 4.03466 v 26.8828 h -4.78 l -18.072,-21.50547 v 21.50547 h -4.03333 v -26.8828 h 4.78 l 18.07067,21.50533 v -21.50533" /><path
     inkscape:connector-curvature="0"
     id="path92"
     style="fill:#ffffff;fill-opacity:1;fill-rule:nonzero;stroke:none;stroke-width:0.13333333"
     d="m 171.40799,528.96266 c 0,-0.448 -0.37333,-0.82267 -0.82133,-0.82267 h -17.176 c -0.448,0 -0.82,0.37467 -0.82,0.82267 v 7.54133 c 0,0.448 0.372,0.82133 0.82,0.82133 h 17.176 c 0.448,0 0.82133,-0.37333 0.82133,-0.82133 z m -0.82133,-4.85467 c 2.688,0 4.85333,2.20267 4.85333,4.85467 v 7.54133 c 0,2.652 -2.16533,4.85333 -4.85333,4.85333 h -17.176 c -0.29867,0 -0.56,-0.0373 -0.82,-0.0747 v 9.6708 h -4.03467 v -26.84547 h 22.03067" /><path
     inkscape:connector-curvature="0"
     id="path94"
     style="fill:#ffffff;fill-opacity:1;fill-rule:nonzero;stroke:none;stroke-width:0.13333333"
     d="m 202.65199,546.92132 c 0.45334,0 0.82667,-0.37466 0.82667,-0.82266 v -17.17467 c 0,-0.448 -0.37333,-0.82 -0.82667,-0.82 h -17.17333 c -0.44,0 -0.81333,0.372 -0.81333,0.82 v 17.17467 c 0,0.448 0.37333,0.82266 0.81333,0.82266 z m 0,-22.85066 c 2.69334,0 4.85334,2.16666 4.85334,4.85333 v 17.17467 c 0,2.68933 -2.16,4.8548 -4.85334,4.8548 h -17.17333 c -2.68533,0 -4.852,-2.16547 -4.852,-4.8548 v -17.17467 c 0,-2.68667 2.16667,-4.85333 4.852,-4.85333 h 17.17333" /><path
     inkscape:connector-curvature="0"
     id="path96"
     style="fill:#ffffff;fill-opacity:1;fill-rule:nonzero;stroke:none;stroke-width:0.13333333"
     d="m 214.26533,524.03199 h 4.02666 v 22.88933 h 22.85334 v 4.03214 h -26.88 v -26.92147" /><path
     inkscape:connector-curvature="0"
     id="path98"
     style="fill:#ffffff;fill-opacity:1;fill-rule:nonzero;stroke:none;stroke-width:0.13333333"
     d="m 268.43866,524.07066 -12.4,16.80133 v 10.08147 h -4.02667 v -10.08147 l -12.4,-16.80133 h 4.74667 l 9.66666,12.24666 9.62667,-12.24666 h 4.78667" /><path
     inkscape:connector-curvature="0"
     style="font-style:normal;font-variant:normal;font-weight:500;font-stretch:normal;font-size:34.95561981px;line-height:1.25;font-family:Orbitron;-inkscape-font-specification:'Orbitron Medium';letter-spacing:0px;word-spacing:0px;fill:#ee2020;fill-opacity:1;stroke:none;stroke-width:1.16518724"
     d="m 62.442791,0 c -1.70893,0 -3.1552,0.5907467 -4.336,1.77148 -1.18067,1.1807197 -1.76947,2.6250398 -1.76947,4.3339868 v 1.865226 h 5.08 v -1.166013 c 0,-0.683573 0.10934,-1.134053 0.32627,-1.35156 0.21747,-0.248573 0.668,-0.37304 1.35147,-0.37304 h 18.64266 c 0.71467,0 1.18094,0.124534 1.3984,0.37304 0.21747,0.217507 0.32614,0.667987 0.32614,1.35156 V 12.56984 c 0,0.683587 -0.10934,1.149867 -0.32614,1.39844 -0.21746,0.217507 -0.68373,0.326173 -1.3984,0.326173 H 62.442791 V 15.73 17.862813 19.29836 h 19.29493 c 0.7148,0 1.1808,0.108666 1.3984,0.326173 0.2168,0.248587 0.32614,0.714853 0.32614,1.39844 v 5.765173 c 0,0.683587 -0.10934,1.134067 -0.32614,1.35156 -0.2176,0.24852 -0.6836,0.37304 -1.3984,0.37304 h -18.64266 c -0.68347,0 -1.13387,-0.124533 -1.35147,-0.37304 -0.2168,-0.217493 -0.32627,-0.667973 -0.32627,-1.35156 v -1.166013 h -5.08 v 1.865227 c 0,1.708933 0.5888,3.153266 1.76947,4.333986 1.1808,1.180733 2.62707,1.77148 4.336,1.77148 h 19.99413 c 1.7088,0 3.13734,-0.590747 4.28707,-1.77148 1.18067,-1.18072 1.77147,-2.625053 1.77147,-4.333986 v -7.163614 c 0,-0.40396 -0.0467,-0.806986 -0.14054,-1.210933 -0.13333,-0.882626 -0.54426,-1.65572 -0.9596,-2.35864 0.52227,-0.69768 0.76494,-1.51416 0.9596,-2.274173 0.0933,-0.40392 0.14054,-0.807 0.14054,-1.210947 V 6.1054668 c 0,-1.708947 -0.59067,-3.1532671 -1.77147,-4.3339868 C 85.574391,0.5907467 84.145861,0 82.436921,0 Z"
     id="path890" /></svg>