<?xml version="1.0" encoding="UTF-8" standalone="no"?>
<svg
   xmlns:dc="http://purl.org/dc/elements/1.1/"
   xmlns:cc="http://creativecommons.org/ns#"
   xmlns:rdf="http://www.w3.org/1999/02/22-rdf-syntax-ns#"
   xmlns:svg="http://www.w3.org/2000/svg"
   xmlns="http://www.w3.org/2000/svg"
   xmlns:sodipodi="http://sodipodi.sourceforge.net/DTD/sodipodi-0.dtd"
   xmlns:inkscape="http://www.inkscape.org/namespaces/inkscape"
   viewBox="0 0 46.393043 46.393045"
   height="46.393044"
   width="46.393044"
   xml:space="preserve"
   id="svg2"
   version="1.1"
   sodipodi:docname="icon.svg"
   inkscape:version="0.92.5 (2060ec1f9f, 2020-04-08)"
   inkscape:export-filename="/home/henning/Projects/unpoly-brand/unpoly3/icon.png"
   inkscape:export-xdpi="198.64999"
   inkscape:export-ydpi="198.64999"><sodipodi:namedview
     pagecolor="#ffffff"
     bordercolor="#666666"
     borderopacity="1"
     objecttolerance="10"
     gridtolerance="10"
     guidetolerance="10"
     inkscape:pageopacity="0"
     inkscape:pageshadow="2"
     inkscape:window-width="1920"
     inkscape:window-height="1147"
     id="namedview38"
     showgrid="false"
     inkscape:zoom="1.9183911"
     inkscape:cx="2.8334732"
     inkscape:cy="-3.5421448"
     inkscape:window-x="1920"
     inkscape:window-y="0"
     inkscape:window-maximized="1"
     inkscape:current-layer="svg2"
     fit-margin-top="0"
     fit-margin-left="0"
     fit-margin-right="0"
     fit-margin-bottom="0" /><metadata
     id="metadata8"><rdf:RDF><cc:Work
         rdf:about=""><dc:format>image/svg+xml</dc:format><dc:type
           rdf:resource="http://purl.org/dc/dcmitype/StillImage" /><dc:title></dc:title></cc:Work></rdf:RDF></metadata><defs
     id="defs6">

</defs><circle
     style="fill:#2c2d2e;fill-opacity:1;stroke:none;stroke-width:0.37795275;stroke-miterlimit:4;stroke-dasharray:none;stroke-opacity:1"
     id="path846"
     cx="23.196522"
     cy="23.196522"
     r="23.196522" /><path
     inkscape:connector-curvature="0"
     id="path40"
     style="fill:#ffffff;fill-opacity:1;fill-rule:nonzero;stroke:none;stroke-width:0.08347207"
     d="M 37.978174,31.529131 V 10.361449 H 34.693548 V 29.805433 L 23.196105,36.401395 11.699497,29.805433 V 10.361449 H 8.4148708 v 21.167682 l 14.7812342,8.502465 14.782069,-8.502465" /><path
     inkscape:connector-curvature="0"
     id="path42"
     style="fill:#ffffff;fill-opacity:1;fill-rule:nonzero;stroke:none;stroke-width:0.08347207"
     d="m 28.124296,13.346409 v 16.440659 l 3.283791,-1.883964 V 13.346409 h -3.283791" /><path
     inkscape:connector-curvature="0"
     id="path44"
     style="fill:#ffffff;fill-opacity:1;fill-rule:nonzero;stroke:none;stroke-width:0.08347207"
     d="m 21.555044,17.25958 v 14.412288 l 1.641061,0.942399 1.643565,-0.942399 V 17.25958 h -3.284626" /><path
     inkscape:connector-curvature="0"
     id="path46"
     style="fill:#ffffff;fill-opacity:1;fill-rule:nonzero;stroke:none;stroke-width:0.08347207"
     d="m 14.984123,21.484936 v 6.418168 l 3.285461,1.883964 v -8.302132 h -3.285461" /><path
     inkscape:connector-curvature="0"
     id="path60"
     style="fill:#ffffff;fill-opacity:1;fill-rule:nonzero;stroke:none;stroke-width:0.13333333"
     d="m -669.86613,553.59251 v -27.04933 h -4.196 v 24.84533 l -14.692,8.4296 -14.692,-8.4296 v -24.84533 h -4.19733 v 27.04933 l 18.88933,10.86414 18.888,-10.86414" /><path
     inkscape:connector-curvature="0"
     id="path62"
     style="fill:#ffffff;fill-opacity:1;fill-rule:nonzero;stroke:none;stroke-width:0.13333333"
     d="m -682.45813,534.35651 v 17.00934 l 4.19733,-2.40667 v -14.60267 h -4.19733" /><path
     inkscape:connector-curvature="0"
     id="path64"
     style="fill:#ffffff;fill-opacity:1;fill-rule:nonzero;stroke:none;stroke-width:0.13333333"
     d="m -690.8528,526.54318 v 27.23067 l 2.09867,1.20533 2.09866,-1.20533 v -27.23067 h -4.19733" /><path
     inkscape:connector-curvature="0"
     id="path66"
     style="fill:#ffffff;fill-opacity:1;fill-rule:nonzero;stroke:none;stroke-width:0.13333333"
     d="m -699.2488,530.08985 v 18.86933 l 4.19867,2.40667 v -21.276 h -4.19867" /><path
     inkscape:connector-curvature="0"
     id="path68"
     style="fill:#ffffff;fill-opacity:1;fill-rule:nonzero;stroke:none;stroke-width:0.13333333"
     d="m -633.3368,529.87385 h 4.03333 v 22.028 c 0,2.68933 -2.16666,4.8548 -4.85466,4.8548 h -17.17467 c -2.688,0 -4.85333,-2.16547 -4.85333,-4.8548 v -22.028 h 4.032 v 22.028 c 0,0.448 0.37333,0.82266 0.82133,0.82266 h 17.17467 c 0.44933,0 0.82133,-0.37466 0.82133,-0.82266 v -22.028" /><path
     inkscape:connector-curvature="0"
     id="path70"
     style="fill:#ffffff;fill-opacity:1;fill-rule:nonzero;stroke:none;stroke-width:0.13333333"
     d="m -599.73547,529.87385 h 4.032 v 26.8828 h -4.77866 l -18.07334,-21.50547 v 21.50547 h -4.032 v -26.8828 h 4.77867 l 18.07333,21.50533 v -21.50533" /><path
     inkscape:connector-curvature="0"
     id="path72"
     style="fill:#ffffff;fill-opacity:1;fill-rule:nonzero;stroke:none;stroke-width:0.13333333"
     d="m -566.06213,534.76585 c 0,-0.448 -0.37334,-0.82267 -0.82134,-0.82267 h -17.176 c -0.44666,0 -0.82133,0.37467 -0.82133,0.82267 v 7.54133 c 0,0.448 0.37467,0.82133 0.82133,0.82133 h 17.176 c 0.448,0 0.82134,-0.37333 0.82134,-0.82133 z m -0.82134,-4.85467 c 2.688,0 4.85334,2.20267 4.85334,4.85467 v 7.54133 c 0,2.652 -2.16534,4.85333 -4.85334,4.85333 h -17.176 c -0.29866,0 -0.56,-0.0373 -0.82133,-0.0747 v 9.6708 h -4.032 v -26.84547 h 22.02933" /><path
     inkscape:connector-curvature="0"
     id="path74"
     style="fill:#ffffff;fill-opacity:1;fill-rule:nonzero;stroke:none;stroke-width:0.13333333"
     d="m -534.81547,552.72451 c 0.448,0 0.82267,-0.37466 0.82267,-0.82266 v -17.17467 c 0,-0.448 -0.37467,-0.82 -0.82267,-0.82 h -17.17467 c -0.448,0 -0.82,0.372 -0.82,0.82 v 17.17467 c 0,0.448 0.372,0.82266 0.82,0.82266 z m 0,-22.85066 c 2.68933,0 4.85467,2.16666 4.85467,4.85333 v 17.17467 c 0,2.68933 -2.16534,4.8548 -4.85467,4.8548 h -17.17467 c -2.688,0 -4.85333,-2.16547 -4.85333,-4.8548 v -17.17467 c 0,-2.68667 2.16533,-4.85333 4.85333,-4.85333 h 17.17467" /><path
     inkscape:connector-curvature="0"
     id="path76"
     style="fill:#ffffff;fill-opacity:1;fill-rule:nonzero;stroke:none;stroke-width:0.13333333"
     d="m -523.20614,529.83518 h 4.032 v 22.88933 h 22.85067 v 4.03214 h -26.88267 v -26.92147" /><path
     inkscape:connector-curvature="0"
     id="path78"
     style="fill:#ffffff;fill-opacity:1;fill-rule:nonzero;stroke:none;stroke-width:0.13333333"
     d="m -469.0328,529.87385 -12.396,16.80133 v 10.08147 h -4.03334 v -10.08147 l -12.396,-16.80133 h 4.74267 l 9.66933,12.24666 9.63467,-12.24666 h 4.77867" /><path
     inkscape:connector-curvature="0"
     id="path80"
     style="fill:#ffffff;fill-opacity:1;fill-rule:nonzero;stroke:none;stroke-width:0.13333333"
     d="M 60.801854,553.59251 V 526.54318 H 56.60452 v 24.84533 l -14.691999,8.4296 -14.692,-8.4296 v -24.84533 h -4.197333 v 27.04933 l 18.889333,10.86414 18.889333,-10.86414" /><path
     inkscape:connector-curvature="0"
     id="path82"
     style="fill:#ffffff;fill-opacity:1;fill-rule:nonzero;stroke:none;stroke-width:0.13333333"
     d="m 48.208521,530.35651 v 21.00934 l 4.198666,-2.40667 v -18.60267 h -4.198666" /><path
     inkscape:connector-curvature="0"
     id="path84"
     style="fill:#ffffff;fill-opacity:1;fill-rule:nonzero;stroke:none;stroke-width:0.13333333"
     d="m 39.813854,535.35651 v 18.41734 l 2.098667,1.20533 2.1,-1.20533 v -18.41734 h -4.198667" /><path
     inkscape:connector-curvature="0"
     id="path86"
     style="fill:#ffffff;fill-opacity:1;fill-rule:nonzero;stroke:none;stroke-width:0.13333333"
     d="m 31.417854,540.75651 v 8.20267 l 4.198667,2.40667 v -10.60934 h -4.198667" /><path
     inkscape:connector-curvature="0"
     id="path88"
     style="fill:#ffffff;fill-opacity:1;fill-rule:nonzero;stroke:none;stroke-width:0.13333333"
     d="m 97.331182,529.87385 h 4.030668 v 22.028 c 0,2.68933 -2.163998,4.8548 -4.853328,4.8548 H 79.333853 c -2.688,0 -4.853333,-2.16547 -4.853333,-4.8548 v -22.028 h 4.032 v 22.028 c 0,0.448 0.373333,0.82266 0.821333,0.82266 h 17.174669 c 0.45066,0 0.82266,-0.37466 0.82266,-0.82266 v -22.028" /><path
     inkscape:connector-curvature="0"
     id="path90"
     style="fill:#ffffff;fill-opacity:1;fill-rule:nonzero;stroke:none;stroke-width:0.13333333"
     d="m 130.92985,529.87385 h 4.03466 v 26.8828 h -4.78 l -18.072,-21.50547 v 21.50547 h -4.03333 v -26.8828 h 4.78 l 18.07067,21.50533 v -21.50533" /><path
     inkscape:connector-curvature="0"
     id="path92"
     style="fill:#ffffff;fill-opacity:1;fill-rule:nonzero;stroke:none;stroke-width:0.13333333"
     d="m 164.60451,534.76585 c 0,-0.448 -0.37333,-0.82267 -0.82133,-0.82267 h -17.176 c -0.448,0 -0.82,0.37467 -0.82,0.82267 v 7.54133 c 0,0.448 0.372,0.82133 0.82,0.82133 h 17.176 c 0.448,0 0.82133,-0.37333 0.82133,-0.82133 z m -0.82133,-4.85467 c 2.688,0 4.85333,2.20267 4.85333,4.85467 v 7.54133 c 0,2.652 -2.16533,4.85333 -4.85333,4.85333 h -17.176 c -0.29867,0 -0.56,-0.0373 -0.82,-0.0747 v 9.6708 h -4.03467 v -26.84547 h 22.03067" /><path
     inkscape:connector-curvature="0"
     id="path94"
     style="fill:#ffffff;fill-opacity:1;fill-rule:nonzero;stroke:none;stroke-width:0.13333333"
     d="m 195.84851,552.72451 c 0.45334,0 0.82667,-0.37466 0.82667,-0.82266 v -17.17467 c 0,-0.448 -0.37333,-0.82 -0.82667,-0.82 h -17.17333 c -0.44,0 -0.81333,0.372 -0.81333,0.82 v 17.17467 c 0,0.448 0.37333,0.82266 0.81333,0.82266 z m 0,-22.85066 c 2.69334,0 4.85334,2.16666 4.85334,4.85333 v 17.17467 c 0,2.68933 -2.16,4.8548 -4.85334,4.8548 h -17.17333 c -2.68533,0 -4.852,-2.16547 -4.852,-4.8548 v -17.17467 c 0,-2.68667 2.16667,-4.85333 4.852,-4.85333 h 17.17333" /><path
     inkscape:connector-curvature="0"
     id="path96"
     style="fill:#ffffff;fill-opacity:1;fill-rule:nonzero;stroke:none;stroke-width:0.13333333"
     d="m 207.46185,529.83518 h 4.02666 v 22.88933 h 22.85334 v 4.03214 h -26.88 v -26.92147" /><path
     inkscape:connector-curvature="0"
     id="path98"
     style="fill:#ffffff;fill-opacity:1;fill-rule:nonzero;stroke:none;stroke-width:0.13333333"
     d="m 261.63518,529.87385 -12.4,16.80133 v 10.08147 h -4.02667 v -10.08147 l -12.4,-16.80133 h 4.74667 l 9.66666,12.24666 9.62667,-12.24666 h 4.78667" /></svg>