<?xml version="1.0" encoding="UTF-8" standalone="no"?>
<!-- Created with Inkscape (http://www.inkscape.org/) -->

<svg
   xmlns:dc="http://purl.org/dc/elements/1.1/"
   xmlns:cc="http://creativecommons.org/ns#"
   xmlns:rdf="http://www.w3.org/1999/02/22-rdf-syntax-ns#"
   xmlns:svg="http://www.w3.org/2000/svg"
   xmlns="http://www.w3.org/2000/svg"
   xmlns:sodipodi="http://sodipodi.sourceforge.net/DTD/sodipodi-0.dtd"
   xmlns:inkscape="http://www.inkscape.org/namespaces/inkscape"
   version="1.1"
   id="svg2"
   xml:space="preserve"
   width="320.93951"
   height="47.393333"
   viewBox="0 0 320.93951 47.393335"
   sodipodi:docname="unpoly3.superscript.svg"
   inkscape:version="0.92.5 (2060ec1f9f, 2020-04-08)"><metadata
     id="metadata8"><rdf:RDF><cc:Work
         rdf:about=""><dc:format>image/svg+xml</dc:format><dc:type
           rdf:resource="http://purl.org/dc/dcmitype/StillImage" /><dc:title></dc:title></cc:Work></rdf:RDF></metadata><defs
     id="defs6" /><sodipodi:namedview
     pagecolor="#ffffff"
     bordercolor="#666666"
     borderopacity="1"
     objecttolerance="10"
     gridtolerance="10"
     guidetolerance="10"
     inkscape:pageopacity="0"
     inkscape:pageshadow="2"
     inkscape:window-width="1920"
     inkscape:window-height="1147"
     id="namedview4"
     showgrid="false"
     inkscape:zoom="0.5"
     inkscape:cx="262.15194"
     inkscape:cy="-422.33927"
     inkscape:window-x="1920"
     inkscape:window-y="0"
     inkscape:window-maximized="1"
     inkscape:current-layer="g10"
     showguides="false"
     inkscape:guide-bbox="true"
     fit-margin-top="0"
     fit-margin-left="0"
     fit-margin-right="0"
     fit-margin-bottom="0"><sodipodi:guide
       position="183.9484,-241.06715"
       orientation="0,1"
       id="guide4547"
       inkscape:locked="false" /><sodipodi:guide
       position="180.5522,-274.66873"
       orientation="0,1"
       id="guide4549"
       inkscape:locked="false" /></sodipodi:namedview><g
     id="g10"
     inkscape:groupmode="layer"
     inkscape:label="ink_ext_XXXXXX"
     transform="matrix(1.3333333,0,0,-1.3333333,-1255.2868,967.40464)"><path
   inkscape:connector-curvature="0"
   id="path60"
   style="fill:#ffffff;fill-opacity:1;fill-rule:nonzero;stroke:none;stroke-width:0.1"
   d="m 364.854,101.484 v 20.287 h -3.147 v -18.634 l -11.019,-6.3222 -11.019,6.3222 v 18.634 h -3.148 v -20.287 l 14.167,-8.1481 14.166,8.1481" /><path
   inkscape:connector-curvature="0"
   id="path62"
   style="fill:#ffffff;fill-opacity:1;fill-rule:nonzero;stroke:none;stroke-width:0.1"
   d="m 355.41,115.911 v -12.757 l 3.148,1.805 v 10.952 h -3.148" /><path
   inkscape:connector-curvature="0"
   id="path64"
   style="fill:#ffffff;fill-opacity:1;fill-rule:nonzero;stroke:none;stroke-width:0.1"
   d="m 349.114,121.771 v -20.423 l 1.574,-0.904 1.574,0.904 v 20.423 h -3.148" /><path
   inkscape:connector-curvature="0"
   id="path66"
   style="fill:#ffffff;fill-opacity:1;fill-rule:nonzero;stroke:none;stroke-width:0.1"
   d="m 342.817,119.111 v -14.152 l 3.149,-1.805 v 15.957 h -3.149" /><path
   inkscape:connector-curvature="0"
   id="path68"
   style="fill:#ffffff;fill-opacity:1;fill-rule:nonzero;stroke:none;stroke-width:0.1"
   d="m 392.251,119.273 h 3.025 v -16.521 c 0,-2.017 -1.625,-3.6411 -3.641,-3.6411 h -12.881 c -2.016,0 -3.64,1.6241 -3.64,3.6411 v 16.521 h 3.024 v -16.521 c 0,-0.336 0.28,-0.617 0.616,-0.617 h 12.881 c 0.337,0 0.616,0.281 0.616,0.617 v 16.521" /><path
   inkscape:connector-curvature="0"
   id="path70"
   style="fill:#ffffff;fill-opacity:1;fill-rule:nonzero;stroke:none;stroke-width:0.1"
   d="m 417.452,119.273 h 3.024 V 99.1109 h -3.584 L 403.337,115.24 V 99.1109 h -3.024 v 20.1621 h 3.584 l 13.555,-16.129 v 16.129" /><path
   inkscape:connector-curvature="0"
   id="path72"
   style="fill:#ffffff;fill-opacity:1;fill-rule:nonzero;stroke:none;stroke-width:0.1"
   d="m 442.707,115.604 c 0,0.336 -0.28,0.617 -0.616,0.617 h -12.882 c -0.335,0 -0.616,-0.281 -0.616,-0.617 v -5.656 c 0,-0.336 0.281,-0.616 0.616,-0.616 h 12.882 c 0.336,0 0.616,0.28 0.616,0.616 z m -0.616,3.641 c 2.016,0 3.64,-1.652 3.64,-3.641 v -5.656 c 0,-1.989 -1.624,-3.64 -3.64,-3.64 h -12.882 c -0.224,0 -0.42,0.028 -0.616,0.056 v -7.2531 h -3.024 v 20.1341 h 16.522" /><path
   inkscape:connector-curvature="0"
   id="path74"
   style="fill:#ffffff;fill-opacity:1;fill-rule:nonzero;stroke:none;stroke-width:0.1"
   d="m 466.142,102.135 c 0.336,0 0.617,0.281 0.617,0.617 v 12.881 c 0,0.336 -0.281,0.615 -0.617,0.615 h -12.881 c -0.336,0 -0.615,-0.279 -0.615,-0.615 v -12.881 c 0,-0.336 0.279,-0.617 0.615,-0.617 z m 0,17.138 c 2.017,0 3.641,-1.625 3.641,-3.64 v -12.881 c 0,-2.017 -1.624,-3.6411 -3.641,-3.6411 h -12.881 c -2.016,0 -3.64,1.6241 -3.64,3.6411 v 12.881 c 0,2.015 1.624,3.64 3.64,3.64 h 12.881" /><path
   inkscape:connector-curvature="0"
   id="path76"
   style="fill:#ffffff;fill-opacity:1;fill-rule:nonzero;stroke:none;stroke-width:0.1"
   d="m 474.849,119.302 h 3.024 v -17.167 h 17.138 v -3.0241 h -20.162 v 20.1911" /><path
   inkscape:connector-curvature="0"
   id="path78"
   style="fill:#ffffff;fill-opacity:1;fill-rule:nonzero;stroke:none;stroke-width:0.1"
   d="m 515.479,119.273 -9.297,-12.601 v -7.5611 h -3.025 v 7.5611 l -9.297,12.601 h 3.557 l 7.252,-9.185 7.226,9.185 h 3.584" /><path
   inkscape:connector-curvature="0"
   id="path80"
   style="fill:#ffffff;fill-opacity:1;fill-rule:nonzero;stroke:none;stroke-width:0.1"
   d="m 912.855,101.484 v 20.287 h -3.148 v -18.634 l -11.019,-6.3222 -11.019,6.3222 v 18.634 h -3.148 v -20.287 l 14.167,-8.1481 14.167,8.1481" /><path
   inkscape:connector-curvature="0"
   id="path82"
   style="fill:#ffffff;fill-opacity:1;fill-rule:nonzero;stroke:none;stroke-width:0.1"
   d="m 903.41,118.911 v -15.757 l 3.149,1.805 v 13.952 h -3.149" /><path
   inkscape:connector-curvature="0"
   id="path84"
   style="fill:#ffffff;fill-opacity:1;fill-rule:nonzero;stroke:none;stroke-width:0.1"
   d="m 897.114,115.161 v -13.813 l 1.574,-0.904 1.575,0.904 v 13.813 h -3.149" /><path
   inkscape:connector-curvature="0"
   id="path86"
   style="fill:#ffffff;fill-opacity:1;fill-rule:nonzero;stroke:none;stroke-width:0.1"
   d="m 890.817,111.111 v -6.152 l 3.149,-1.805 v 7.957 h -3.149" /><path
   inkscape:connector-curvature="0"
   id="path88"
   style="fill:#ffffff;fill-opacity:1;fill-rule:nonzero;stroke:none;stroke-width:0.1"
   d="m 940.252,119.273 h 3.023 v -16.521 c 0,-2.017 -1.623,-3.6411 -3.64,-3.6411 h -12.881 c -2.016,0 -3.64,1.6241 -3.64,3.6411 v 16.521 h 3.024 v -16.521 c 0,-0.336 0.28,-0.617 0.616,-0.617 h 12.881 c 0.338,0 0.617,0.281 0.617,0.617 v 16.521" /><path
   inkscape:connector-curvature="0"
   id="path90"
   style="fill:#ffffff;fill-opacity:1;fill-rule:nonzero;stroke:none;stroke-width:0.1"
   d="m 965.451,119.273 h 3.026 V 99.1109 h -3.585 L 951.338,115.24 V 99.1109 h -3.025 v 20.1621 h 3.585 l 13.553,-16.129 v 16.129" /><path
   inkscape:connector-curvature="0"
   id="path92"
   style="fill:#ffffff;fill-opacity:1;fill-rule:nonzero;stroke:none;stroke-width:0.1"
   d="m 990.707,115.604 c 0,0.336 -0.28,0.617 -0.616,0.617 h -12.882 c -0.336,0 -0.615,-0.281 -0.615,-0.617 v -5.656 c 0,-0.336 0.279,-0.616 0.615,-0.616 h 12.882 c 0.336,0 0.616,0.28 0.616,0.616 z m -0.616,3.641 c 2.016,0 3.64,-1.652 3.64,-3.641 v -5.656 c 0,-1.989 -1.624,-3.64 -3.64,-3.64 h -12.882 c -0.224,0 -0.42,0.028 -0.615,0.056 v -7.2531 h -3.026 v 20.1341 h 16.523" /><path
   inkscape:connector-curvature="0"
   id="path94"
   style="fill:#ffffff;fill-opacity:1;fill-rule:nonzero;stroke:none;stroke-width:0.1"
   d="m 1014.14,102.135 c 0.34,0 0.62,0.281 0.62,0.617 v 12.881 c 0,0.336 -0.28,0.615 -0.62,0.615 h -12.88 c -0.33,0 -0.61,-0.279 -0.61,-0.615 v -12.881 c 0,-0.336 0.28,-0.617 0.61,-0.617 z m 0,17.138 c 2.02,0 3.64,-1.625 3.64,-3.64 v -12.881 c 0,-2.017 -1.62,-3.6411 -3.64,-3.6411 h -12.88 c -2.014,0 -3.639,1.6241 -3.639,3.6411 v 12.881 c 0,2.015 1.625,3.64 3.639,3.64 h 12.88" /><path
   inkscape:connector-curvature="0"
   id="path96"
   style="fill:#ffffff;fill-opacity:1;fill-rule:nonzero;stroke:none;stroke-width:0.1"
   d="m 1022.85,119.302 h 3.02 v -17.167 h 17.14 v -3.0241 h -20.16 v 20.1911" /><path
   inkscape:connector-curvature="0"
   id="path98"
   style="fill:#ffffff;fill-opacity:1;fill-rule:nonzero;stroke:none;stroke-width:0.1"
   d="m 1063.48,119.273 -9.3,-12.601 v -7.5611 h -3.02 v 7.5611 l -9.3,12.601 h 3.56 l 7.25,-9.185 7.22,9.185 h 3.59" />


<path
   inkscape:connector-curvature="0"
   id="path40-5"
   style="fill:#2c2d2e;fill-opacity:1;fill-rule:nonzero;stroke:none;stroke-width:0.09999999"
   d="m 976.88216,700.1945 v 25.359 h -3.935 v -23.294 l -13.774,-7.902 -13.773,7.902 v 23.294 h -3.935 v -25.359 l 17.708,-10.186 17.709,10.186" /><path
   inkscape:connector-curvature="0"
   id="path42-4"
   style="fill:#2c2d2e;fill-opacity:1;fill-rule:nonzero;stroke:none;stroke-width:0.09999999"
   d="m 965.07716,721.9775 v -19.696 l 3.934,2.257 v 17.439 h -3.934" /><path
   inkscape:connector-curvature="0"
   id="path44-4"
   style="fill:#2c2d2e;fill-opacity:1;fill-rule:nonzero;stroke:none;stroke-width:0.09999999"
   d="m 957.20716,717.2895 v -17.266 l 1.966,-1.129 1.969,1.129 v 17.266 h -3.935" /><path
   inkscape:connector-curvature="0"
   id="path46-9"
   style="fill:#2c2d2e;fill-opacity:1;fill-rule:nonzero;stroke:none;stroke-width:0.09999999"
   d="m 949.33516,712.2275 v -7.689 l 3.936,-2.257 v 9.946 h -3.936" /><path
   inkscape:connector-curvature="0"
   id="path48-9"
   style="fill:#2c2d2e;fill-opacity:1;fill-rule:nonzero;stroke:none;stroke-width:0.09999999"
   d="m 1011.1282,722.4305 h 3.781 v -20.653 c 0,-2.52 -2.031,-4.55 -4.551,-4.55 h -16.10204 c -2.52,0 -4.549,2.03 -4.549,4.55 v 20.653 h 3.779 v -20.653 c 0,-0.42 0.35,-0.77 0.77,-0.77 h 16.10204 c 0.421,0 0.77,0.35 0.77,0.77 v 20.653" /><path
   inkscape:connector-curvature="0"
   id="path50-3"
   style="fill:#2c2d2e;fill-opacity:1;fill-rule:nonzero;stroke:none;stroke-width:0.09999999"
   d="m 1042.6282,722.4305 h 3.781 v -25.203 h -4.481 l -16.942,20.162 v -20.162 h -3.78 v 25.203 h 4.48 l 16.942,-20.162 v 20.162" /><path
   inkscape:connector-curvature="0"
   id="path52-6"
   style="fill:#2c2d2e;fill-opacity:1;fill-rule:nonzero;stroke:none;stroke-width:0.09999999"
   d="m 1074.1982,717.8445 c 0,0.42 -0.351,0.77 -0.771,0.77 h -16.101 c -0.42,0 -0.771,-0.35 -0.771,-0.77 v -7.071 c 0,-0.42 0.351,-0.77 0.771,-0.77 h 16.101 c 0.42,0 0.771,0.35 0.771,0.77 z m -0.771,4.55 c 2.521,0 4.551,-2.064 4.551,-4.55 v -7.071 c 0,-2.485 -2.03,-4.55 -4.551,-4.55 h -16.101 c -0.281,0 -0.526,0.035 -0.771,0.07 v -9.066 h -3.78 v 25.167 h 20.652" /><path
   inkscape:connector-curvature="0"
   id="path54-0"
   style="fill:#2c2d2e;fill-opacity:1;fill-rule:nonzero;stroke:none;stroke-width:0.09999999"
   d="m 1103.4942,701.0075 c 0.42,0 0.77,0.35 0.77,0.77 v 16.102 c 0,0.42 -0.35,0.77 -0.77,0.77 h -16.1 c -0.42,0 -0.77,-0.35 -0.77,-0.77 v -16.102 c 0,-0.42 0.35,-0.77 0.77,-0.77 z m 0,21.423 c 2.52,0 4.55,-2.031 4.55,-4.551 v -16.102 c 0,-2.52 -2.03,-4.55 -4.55,-4.55 h -16.1 c -2.52,0 -4.55,2.03 -4.55,4.55 v 16.102 c 0,2.52 2.03,4.551 4.55,4.551 h 16.1" /><path
   inkscape:connector-curvature="0"
   id="path56-5"
   style="fill:#2c2d2e;fill-opacity:1;fill-rule:nonzero;stroke:none;stroke-width:0.09999999"
   d="m 1114.3742,722.4655 h 3.78 v -21.458 h 21.42 v -3.78 h -25.2 v 25.238" /><path
   inkscape:connector-curvature="0"
   id="path58-0"
   style="fill:#2c2d2e;fill-opacity:1;fill-rule:nonzero;stroke:none;stroke-width:0.09999999"
   d="m 1165.1642,722.4305 -11.62,-15.752 v -9.451 h -3.78 v 9.451 l -11.62,15.752 h 4.44 l 9.07,-11.481 9.03,11.481 h 4.48" /><path
   style="font-style:normal;font-variant:normal;font-weight:500;font-stretch:normal;font-size:34.95561981px;line-height:1.25;font-family:Orbitron;-inkscape-font-specification:'Orbitron Medium';letter-spacing:0px;word-spacing:0px;fill:#ff4433;fill-opacity:1;stroke:none;stroke-width:0.45115975"
   d="m 1172.0823,722.43564 c -0.6617,0 -1.2218,-0.22874 -1.679,-0.68592 -0.4571,-0.45717 -0.6851,-1.01641 -0.6851,-1.67811 v -0.72222 h 1.967 v 0.45148 c 0,0.26468 0.042,0.43911 0.1263,0.52332 0.084,0.0962 0.2586,0.14445 0.5233,0.14445 h 7.2184 c 0.2767,0 0.4572,-0.0482 0.5415,-0.14445 0.084,-0.0842 0.1262,-0.25864 0.1262,-0.52332 v -2.23227 c 0,-0.26468 -0.042,-0.44522 -0.1262,-0.54147 -0.084,-0.0842 -0.2648,-0.12629 -0.5415,-0.12629 h -7.4709 v -0.55585 -0.82582 -0.55584 h 7.4709 c 0.2768,0 0.4572,-0.0421 0.5415,-0.1263 0.084,-0.0963 0.1262,-0.27679 0.1262,-0.54147 v -2.23227 c 0,-0.26469 -0.042,-0.43912 -0.1262,-0.52332 -0.084,-0.0962 -0.2647,-0.14445 -0.5415,-0.14445 h -7.2184 c -0.2647,0 -0.4391,0.0482 -0.5233,0.14445 -0.084,0.0842 -0.1263,0.25863 -0.1263,0.52332 v 0.45148 h -1.967 v -0.72222 c 0,-0.6617 0.228,-1.22094 0.6851,-1.67811 0.4572,-0.45718 1.0173,-0.68592 1.679,-0.68592 h 7.7416 c 0.6617,0 1.2149,0.22874 1.66,0.68592 0.4571,0.45717 0.6859,1.01641 0.6859,1.67811 v 2.77375 c 0,0.15641 -0.018,0.31246 -0.054,0.46887 -0.052,0.34176 -0.2108,0.6411 -0.3716,0.91327 0.2022,0.27013 0.2962,0.58628 0.3716,0.88056 0.036,0.15639 0.054,0.31247 0.054,0.46887 v 2.77374 c 0,0.6617 -0.2287,1.22094 -0.6859,1.67811 -0.4451,0.45718 -0.9982,0.68592 -1.66,0.68592 z"
   id="path890-2"
   inkscape:connector-curvature="0"
   sodipodi:nodetypes="scsccscsscsscsccccscsscsscsccscsscsscccsscss" /></g></svg>