<?xml version="1.0" encoding="UTF-8" standalone="no"?>
<!-- Created with Inkscape (http://www.inkscape.org/) -->

<svg
   xmlns:dc="http://purl.org/dc/elements/1.1/"
   xmlns:cc="http://creativecommons.org/ns#"
   xmlns:rdf="http://www.w3.org/1999/02/22-rdf-syntax-ns#"
   xmlns:svg="http://www.w3.org/2000/svg"
   xmlns="http://www.w3.org/2000/svg"
   xmlns:sodipodi="http://sodipodi.sourceforge.net/DTD/sodipodi-0.dtd"
   xmlns:inkscape="http://www.inkscape.org/namespaces/inkscape"
   version="1.1"
   id="svg2"
   xml:space="preserve"
   width="335.08231"
   height="47.393333"
   viewBox="0 0 335.08229 47.393335"
   sodipodi:docname="unpoly3.dashlets.svg"
   inkscape:version="0.92.5 (2060ec1f9f, 2020-04-08)"><metadata
     id="metadata8"><rdf:RDF><cc:Work
         rdf:about=""><dc:format>image/svg+xml</dc:format><dc:type
           rdf:resource="http://purl.org/dc/dcmitype/StillImage" /><dc:title /></cc:Work></rdf:RDF></metadata><defs
     id="defs6" /><sodipodi:namedview
     pagecolor="#ffffff"
     bordercolor="#666666"
     borderopacity="1"
     objecttolerance="10"
     gridtolerance="10"
     guidetolerance="10"
     inkscape:pageopacity="0"
     inkscape:pageshadow="2"
     inkscape:window-width="2560"
     inkscape:window-height="1391"
     id="namedview4"
     showgrid="false"
     inkscape:zoom="5.6568542"
     inkscape:cx="249.36614"
     inkscape:cy="40.595107"
     inkscape:window-x="1920"
     inkscape:window-y="0"
     inkscape:window-maximized="1"
     inkscape:current-layer="g10"
     showguides="true"
     inkscape:guide-bbox="true"
     fit-margin-top="0"
     fit-margin-left="0"
     fit-margin-right="0"
     fit-margin-bottom="0"
     inkscape:snap-bbox="true"
     inkscape:bbox-paths="true"
     inkscape:bbox-nodes="true"><sodipodi:guide
       position="183.94835,-241.06716"
       orientation="0,1"
       id="guide4547"
       inkscape:locked="false" /><sodipodi:guide
       position="180.55215,-274.66874"
       orientation="0,1"
       id="guide4549"
       inkscape:locked="false" /><sodipodi:guide
       position="249.24991,63.999985"
       orientation="0,1"
       id="guide860"
       inkscape:locked="false" /></sodipodi:namedview><g
     id="g10"
     inkscape:groupmode="layer"
     inkscape:label="ink_ext_XXXXXX"
     transform="matrix(1.3333333,0,0,-1.3333333,-1255.2868,967.40464)">


<path
   inkscape:connector-curvature="0"
   id="path40-5"
   style="fill:#2c2d2e;fill-opacity:1;fill-rule:nonzero;stroke:none;stroke-width:0.09999999"
   d="m 976.88216,700.1945 v 25.359 h -3.935 v -23.294 l -13.774,-7.902 -13.773,7.902 v 23.294 h -3.935 v -25.359 l 17.708,-10.186 17.709,10.186" /><path
   inkscape:connector-curvature="0"
   id="path42-4"
   style="fill:#2c2d2e;fill-opacity:1;fill-rule:nonzero;stroke:none;stroke-width:0.09999999"
   d="m 965.07716,721.9775 v -19.696 l 3.934,2.257 v 17.439 h -3.934" /><path
   inkscape:connector-curvature="0"
   id="path44-4"
   style="fill:#2c2d2e;fill-opacity:1;fill-rule:nonzero;stroke:none;stroke-width:0.09999999"
   d="m 957.20716,717.2895 v -17.266 l 1.966,-1.129 1.969,1.129 v 17.266 h -3.935" /><path
   inkscape:connector-curvature="0"
   id="path46-9"
   style="fill:#2c2d2e;fill-opacity:1;fill-rule:nonzero;stroke:none;stroke-width:0.09999999"
   d="m 949.33516,712.2275 v -7.689 l 3.936,-2.257 v 9.946 h -3.936" /><path
   inkscape:connector-curvature="0"
   id="path48-9"
   style="fill:#2c2d2e;fill-opacity:1;fill-rule:nonzero;stroke:none;stroke-width:0.09999999"
   d="m 1011.1282,722.4305 h 3.781 v -20.653 c 0,-2.52 -2.031,-4.55 -4.551,-4.55 h -16.10204 c -2.52,0 -4.549,2.03 -4.549,4.55 v 20.653 h 3.779 v -20.653 c 0,-0.42 0.35,-0.77 0.77,-0.77 h 16.10204 c 0.421,0 0.77,0.35 0.77,0.77 v 20.653" /><path
   inkscape:connector-curvature="0"
   id="path50-3"
   style="fill:#2c2d2e;fill-opacity:1;fill-rule:nonzero;stroke:none;stroke-width:0.09999999"
   d="m 1042.6282,722.4305 h 3.781 v -25.203 h -4.481 l -16.942,20.162 v -20.162 h -3.78 v 25.203 h 4.48 l 16.942,-20.162 v 20.162" /><path
   inkscape:connector-curvature="0"
   id="path52-6"
   style="fill:#2c2d2e;fill-opacity:1;fill-rule:nonzero;stroke:none;stroke-width:0.09999999"
   d="m 1074.1982,717.8445 c 0,0.42 -0.351,0.77 -0.771,0.77 h -16.101 c -0.42,0 -0.771,-0.35 -0.771,-0.77 v -7.071 c 0,-0.42 0.351,-0.77 0.771,-0.77 h 16.101 c 0.42,0 0.771,0.35 0.771,0.77 z m -0.771,4.55 c 2.521,0 4.551,-2.064 4.551,-4.55 v -7.071 c 0,-2.485 -2.03,-4.55 -4.551,-4.55 h -16.101 c -0.281,0 -0.526,0.035 -0.771,0.07 v -9.066 h -3.78 v 25.167 h 20.652" /><path
   inkscape:connector-curvature="0"
   id="path54-0"
   style="fill:#2c2d2e;fill-opacity:1;fill-rule:nonzero;stroke:none;stroke-width:0.09999999"
   d="m 1103.4942,701.0075 c 0.42,0 0.77,0.35 0.77,0.77 v 16.102 c 0,0.42 -0.35,0.77 -0.77,0.77 h -16.1 c -0.42,0 -0.77,-0.35 -0.77,-0.77 v -16.102 c 0,-0.42 0.35,-0.77 0.77,-0.77 z m 0,21.423 c 2.52,0 4.55,-2.031 4.55,-4.551 v -16.102 c 0,-2.52 -2.03,-4.55 -4.55,-4.55 h -16.1 c -2.52,0 -4.55,2.03 -4.55,4.55 v 16.102 c 0,2.52 2.03,4.551 4.55,4.551 h 16.1" /><path
   inkscape:connector-curvature="0"
   id="path56-5"
   style="fill:#2c2d2e;fill-opacity:1;fill-rule:nonzero;stroke:none;stroke-width:0.09999999"
   d="m 1114.3742,722.4655 h 3.78 v -21.458 h 21.42 v -3.78 h -25.2 v 25.238" /><path
   inkscape:connector-curvature="0"
   id="path58-0"
   style="fill:#2c2d2e;fill-opacity:1;fill-rule:nonzero;stroke:none;stroke-width:0.09999999"
   d="m 1165.1642,722.4305 -11.62,-15.752 v -9.451 h -3.78 v 9.451 l -11.62,15.752 h 4.44 l 9.07,-11.481 9.03,11.481 h 4.48" /><path
   style="fill:#ee2020;fill-opacity:1;fill-rule:nonzero;stroke:none;stroke-width:0.09999999"
   d="m 1171.4003,722.4305 -9.0249,-11.47559 h 5.0391 l 8.4668,11.47559 z m -9.0395,-11.46826 v -0.007 h 0.01 z"
   id="path58-0-3"
   inkscape:connector-curvature="0" /><path
   style="fill:#ee2020;fill-opacity:1;fill-rule:nonzero;stroke:none;stroke-width:0.09999999"
   d="m 1179.9006,722.4305 -9.0249,-11.47559 h 5.0391 l 8.4668,11.47559 z m -9.0395,-11.46826 v -0.007 h 0.01 z"
   id="path58-0-3-6"
   inkscape:connector-curvature="0" /><path
   style="fill:#ee2020;fill-opacity:1;fill-rule:nonzero;stroke:none;stroke-width:0.09999999"
   d="m 1188.2959,722.4305 -9.0249,-11.47559 h 5.0391 l 8.4668,11.47559 z m -9.0395,-11.46826 v -0.007 h 0.01 z"
   id="path58-0-3-6-7"
   inkscape:connector-curvature="0" /></g></svg>